<svg version="1.1" xmlns="http://www.w3.org/2000/svg" xmlns:xlink="http://www.w3.org/1999/xlink" x="0px" y="0px" viewBox="0 0 792 612" style="enable-background:new 0 0 792 612;" xml:space="preserve" id="el_rb_GudYJv"><style>@-webkit-keyframes kf_el_eSJe4vi5xg_an_chcdRx1i-{0%{-webkit-transform: translate(190.51953125px, 240.87890625px) translate(-190.51953125px, -240.87890625px) translate(0px, 50px);transform: translate(190.51953125px, 240.87890625px) translate(-190.51953125px, -240.87890625px) translate(0px, 50px);}50%{-webkit-transform: translate(190.51953125px, 240.87890625px) translate(-190.51953125px, -240.87890625px) translate(0px, 0px);transform: translate(190.51953125px, 240.87890625px) translate(-190.51953125px, -240.87890625px) translate(0px, 0px);}100%{-webkit-transform: translate(190.51953125px, 240.87890625px) translate(-190.51953125px, -240.87890625px) translate(0px, 0px);transform: translate(190.51953125px, 240.87890625px) translate(-190.51953125px, -240.87890625px) translate(0px, 0px);}}@keyframes kf_el_eSJe4vi5xg_an_chcdRx1i-{0%{-webkit-transform: translate(190.51953125px, 240.87890625px) translate(-190.51953125px, -240.87890625px) translate(0px, 50px);transform: translate(190.51953125px, 240.87890625px) translate(-190.51953125px, -240.87890625px) translate(0px, 50px);}50%{-webkit-transform: translate(190.51953125px, 240.87890625px) translate(-190.51953125px, -240.87890625px) translate(0px, 0px);transform: translate(190.51953125px, 240.87890625px) translate(-190.51953125px, -240.87890625px) translate(0px, 0px);}100%{-webkit-transform: translate(190.51953125px, 240.87890625px) translate(-190.51953125px, -240.87890625px) translate(0px, 0px);transform: translate(190.51953125px, 240.87890625px) translate(-190.51953125px, -240.87890625px) translate(0px, 0px);}}@-webkit-keyframes kf_el_toypB6c38nn_an_3UJiWVRL0{0%{-webkit-transform: translate(395.98828125px, 268.859375px) scale(1, 1) translate(-395.98828125px, -268.859375px);transform: translate(395.98828125px, 268.859375px) scale(1, 1) translate(-395.98828125px, -268.859375px);}13.33%{-webkit-transform: translate(395.98828125px, 268.859375px) scale(1, 0) translate(-395.98828125px, -268.859375px);transform: translate(395.98828125px, 268.859375px) scale(1, 0) translate(-395.98828125px, -268.859375px);}100%{-webkit-transform: translate(395.98828125px, 268.859375px) scale(1, 0) translate(-395.98828125px, -268.859375px);transform: translate(395.98828125px, 268.859375px) scale(1, 0) translate(-395.98828125px, -268.859375px);}}@keyframes kf_el_toypB6c38nn_an_3UJiWVRL0{0%{-webkit-transform: translate(395.98828125px, 268.859375px) scale(1, 1) translate(-395.98828125px, -268.859375px);transform: translate(395.98828125px, 268.859375px) scale(1, 1) translate(-395.98828125px, -268.859375px);}13.33%{-webkit-transform: translate(395.98828125px, 268.859375px) scale(1, 0) translate(-395.98828125px, -268.859375px);transform: translate(395.98828125px, 268.859375px) scale(1, 0) translate(-395.98828125px, -268.859375px);}100%{-webkit-transform: translate(395.98828125px, 268.859375px) scale(1, 0) translate(-395.98828125px, -268.859375px);transform: translate(395.98828125px, 268.859375px) scale(1, 0) translate(-395.98828125px, -268.859375px);}}@-webkit-keyframes kf_el_iR_TS8BBrV_an_91HzgkS7r{0%{-webkit-transform: translate(396.345703125px, 268.859375px) scale(1, 0) translate(-396.345703125px, -268.859375px);transform: translate(396.345703125px, 268.859375px) scale(1, 0) translate(-396.345703125px, -268.859375px);}13.33%{-webkit-transform: translate(396.345703125px, 268.859375px) scale(1, 0) translate(-396.345703125px, -268.859375px);transform: translate(396.345703125px, 268.859375px) scale(1, 0) translate(-396.345703125px, -268.859375px);}26.67%{-webkit-transform: translate(396.345703125px, 268.859375px) scale(1, 1) translate(-396.345703125px, -268.859375px);transform: translate(396.345703125px, 268.859375px) scale(1, 1) translate(-396.345703125px, -268.859375px);}100%{-webkit-transform: translate(396.345703125px, 268.859375px) scale(1, 1) translate(-396.345703125px, -268.859375px);transform: translate(396.345703125px, 268.859375px) scale(1, 1) translate(-396.345703125px, -268.859375px);}}@keyframes kf_el_iR_TS8BBrV_an_91HzgkS7r{0%{-webkit-transform: translate(396.345703125px, 268.859375px) scale(1, 0) translate(-396.345703125px, -268.859375px);transform: translate(396.345703125px, 268.859375px) scale(1, 0) translate(-396.345703125px, -268.859375px);}13.33%{-webkit-transform: translate(396.345703125px, 268.859375px) scale(1, 0) translate(-396.345703125px, -268.859375px);transform: translate(396.345703125px, 268.859375px) scale(1, 0) translate(-396.345703125px, -268.859375px);}26.67%{-webkit-transform: translate(396.345703125px, 268.859375px) scale(1, 1) translate(-396.345703125px, -268.859375px);transform: translate(396.345703125px, 268.859375px) scale(1, 1) translate(-396.345703125px, -268.859375px);}100%{-webkit-transform: translate(396.345703125px, 268.859375px) scale(1, 1) translate(-396.345703125px, -268.859375px);transform: translate(396.345703125px, 268.859375px) scale(1, 1) translate(-396.345703125px, -268.859375px);}}#el_rb_GudYJv *{-webkit-animation-duration: 1s;animation-duration: 1s;-webkit-animation-iteration-count: 1;animation-iteration-count: 1;-webkit-animation-play-state: paused;animation-play-state: paused;-webkit-animation-timing-function: cubic-bezier(0, 0, 1, 1);animation-timing-function: cubic-bezier(0, 0, 1, 1);}#el_2yERAUgaDR{fill: #DBA588;}#el_iR_TS8BBrV{fill: #DBA588;}#el_f29mkTlzCq{fill: #FFFFFF;}#el_Hy4w51-Iwsu{fill: #E5B181;}#el_toypB6c38nn{fill: #B07157;}#el_iR_TS8BBrV_an_91HzgkS7r{-webkit-animation-fill-mode: forwards;animation-fill-mode: forwards;-webkit-transform: translate(396.345703125px, 268.859375px) scale(1, 0) translate(-396.345703125px, -268.859375px);transform: translate(396.345703125px, 268.859375px) scale(1, 0) translate(-396.345703125px, -268.859375px);-webkit-animation-name: kf_el_iR_TS8BBrV_an_91HzgkS7r;animation-name: kf_el_iR_TS8BBrV_an_91HzgkS7r;-webkit-animation-timing-function: cubic-bezier(0.42, 0, 1, 1);animation-timing-function: cubic-bezier(0.42, 0, 1, 1);}#el_toypB6c38nn_an_3UJiWVRL0{-webkit-animation-fill-mode: forwards;animation-fill-mode: forwards;-webkit-transform: translate(395.98828125px, 268.859375px) scale(1, 1) translate(-395.98828125px, -268.859375px);transform: translate(395.98828125px, 268.859375px) scale(1, 1) translate(-395.98828125px, -268.859375px);-webkit-animation-name: kf_el_toypB6c38nn_an_3UJiWVRL0;animation-name: kf_el_toypB6c38nn_an_3UJiWVRL0;-webkit-animation-timing-function: cubic-bezier(0, 0, 0.58, 1);animation-timing-function: cubic-bezier(0, 0, 0.58, 1);}#el_f29mkTlzCq_an_gLhg76lAu{-webkit-transform: translate(190.51953125px, 240.87890625px) translate(-190.51953125px, -240.87890625px) translate(0px, 50px);transform: translate(190.51953125px, 240.87890625px) translate(-190.51953125px, -240.87890625px) translate(0px, 50px);}#el_eSJe4vi5xg_an_chcdRx1i-{-webkit-animation-fill-mode: forwards;animation-fill-mode: forwards;-webkit-transform: translate(190.51953125px, 240.87890625px) translate(-190.51953125px, -240.87890625px) translate(0px, 50px);transform: translate(190.51953125px, 240.87890625px) translate(-190.51953125px, -240.87890625px) translate(0px, 50px);-webkit-animation-name: kf_el_eSJe4vi5xg_an_chcdRx1i-;animation-name: kf_el_eSJe4vi5xg_an_chcdRx1i-;-webkit-animation-timing-function: cubic-bezier(0.42, 0, 0.58, 1);animation-timing-function: cubic-bezier(0.42, 0, 0.58, 1);}#el_rb_GudYJv:hover *{-webkit-animation-play-state: running;animation-play-state: running;}</style>

<g id="el_LL3mnqWvMD">
</g>
<g id="el_fzymaGhEin">
	<rect id="el_2yERAUgaDR" x="152.51" y="268.86" width="487.33" height="297.95"/>
	<g id="el_iR_TS8BBrV_an_91HzgkS7r" data-animator-group="true" data-animator-type="2"><path id="el_iR_TS8BBrV" d="M396.34,268.86H152.85L274.6,150.37l94.36-91.84c15.24-14.84,39.53-14.84,54.77,0l94.36,91.84&#xA;&#9;&#9;l121.75,118.49H396.34z"/></g>
</g>
<g id="el_eSJe4vi5xg_an_chcdRx1i-" data-animator-group="true" data-animator-type="0"><g id="el_eSJe4vi5xg">
	<g id="el_EfhTEYkoc4">
		<path id="el_f29mkTlzCq" d="M593.33,522.93H198.67c-4.5,0-8.15-3.65-8.15-8.15V258c0-9.46,7.67-17.12,17.12-17.12h376.71&#xA;&#9;&#9;&#9;c9.46,0,17.12,7.67,17.12,17.12v256.78C601.48,519.28,597.83,522.93,593.33,522.93z"/>
		<g id="el_KAn8LIEj11">
			<path d="M252.55,322.13c0-0.43,0.04-0.87,0.11-1.31s0.17-0.89,0.27-1.33c0.1-0.44,0.19-0.9,0.27-1.35s0.11-0.91,0.11-1.37&#xA;&#9;&#9;&#9;&#9;c0-0.71-0.03-1.47-0.08-2.29c-0.05-0.81-0.18-1.59-0.38-2.32c-0.71,0.15-1.44,0.21-2.19,0.17c-0.75-0.04-1.5-0.11-2.25-0.21&#xA;&#9;&#9;&#9;&#9;c-0.75-0.1-1.5-0.2-2.27-0.3c-0.76-0.1-1.52-0.15-2.29-0.15c-0.23,0-0.59,0-1.09,0s-1,0.01-1.52,0.04&#xA;&#9;&#9;&#9;&#9;c-0.52,0.03-1,0.06-1.43,0.11c-0.41,0.05-0.66,0.13-0.76,0.23l-0.38,0.34c0,0.03-0.01,0.08-0.02,0.17&#xA;&#9;&#9;&#9;&#9;c-0.01,0.09-0.02,0.2-0.02,0.32c0,0.13-0.01,0.25-0.02,0.38c-0.01,0.13-0.02,0.23-0.02,0.3c0,0.74,0.06,1.48,0.17,2.23&#xA;&#9;&#9;&#9;&#9;s0.24,1.48,0.38,2.19c0.14,0.71,0.27,1.42,0.4,2.13c0.13,0.71,0.19,1.42,0.19,2.13v0.38c-0.38,0.36-0.72,0.48-1.03,0.36&#xA;&#9;&#9;&#9;&#9;s-0.58-0.39-0.82-0.84c-0.24-0.44-0.44-1.02-0.61-1.71c-0.17-0.7-0.29-1.46-0.38-2.29c-0.09-0.83-0.14-1.67-0.15-2.53&#xA;&#9;&#9;&#9;&#9;c-0.01-0.86,0.02-1.7,0.1-2.51c-0.05-0.05-0.15-0.16-0.3-0.32s-0.3-0.34-0.46-0.53s-0.3-0.38-0.46-0.55&#xA;&#9;&#9;&#9;&#9;c-0.1-0.18-0.18-0.32-0.23-0.42l-0.04-0.08v-0.08c0-0.18,0.04-0.3,0.13-0.38c0.09-0.08,0.2-0.13,0.32-0.17&#xA;&#9;&#9;&#9;&#9;c0.13-0.04,0.25-0.08,0.38-0.13c0.13-0.05,0.23-0.14,0.3-0.27c0-0.02,0-0.09,0-0.19c0-0.1,0-0.21,0-0.32s0-0.22,0-0.32&#xA;&#9;&#9;&#9;&#9;c0-0.08,0-0.14,0-0.19c0.1-1.07,0.18-2.2,0.25-3.41c0.06-1.21,0.18-2.39,0.34-3.54c0.17-1.16,0.42-2.27,0.76-3.33&#xA;&#9;&#9;&#9;&#9;s0.82-2,1.43-2.82c0.61-0.81,1.38-1.46,2.32-1.94c0.94-0.48,2.12-0.72,3.54-0.72c1.12,0,2.13,0.27,3.03,0.8&#xA;&#9;&#9;&#9;&#9;c0.9,0.53,1.7,1.25,2.4,2.15c0.7,0.9,1.31,1.94,1.83,3.12c0.52,1.18,0.96,2.43,1.31,3.75c0.36,1.32,0.65,2.65,0.9,4&#xA;&#9;&#9;&#9;&#9;c0.24,1.35,0.42,2.63,0.55,3.85c0.13,1.22,0.22,2.34,0.27,3.35c0.05,1.02,0.08,1.85,0.08,2.51c0,0.48,0,0.91,0,1.29&#xA;&#9;&#9;&#9;&#9;s-0.02,0.76-0.06,1.12s-0.08,0.76-0.11,1.16c-0.04,0.41-0.11,0.88-0.21,1.41c-0.2,0.28-0.46,0.54-0.78,0.78&#xA;&#9;&#9;&#9;&#9;c-0.32,0.24-0.67,0.36-1.05,0.36c-0.33,0-0.54-0.08-0.63-0.25C252.59,322.63,252.55,322.41,252.55,322.13z M251.64,310.59&#xA;&#9;&#9;&#9;&#9;c0.08,0,0.17-0.01,0.29-0.02s0.21-0.08,0.29-0.19s0.15-0.3,0.23-0.55c0.08-0.25,0.14-0.61,0.19-1.07c0-0.74-0.07-1.58-0.21-2.53&#xA;&#9;&#9;&#9;&#9;c-0.14-0.95-0.35-1.94-0.63-2.95c-0.28-1.01-0.64-2-1.09-2.97c-0.44-0.96-0.97-1.83-1.58-2.59s-1.31-1.37-2.11-1.83&#xA;&#9;&#9;&#9;&#9;s-1.69-0.69-2.69-0.69c-1.04,0-1.92,0.27-2.63,0.82c-0.71,0.55-1.29,1.26-1.73,2.13c-0.44,0.88-0.79,1.86-1.03,2.95&#xA;&#9;&#9;&#9;&#9;c-0.24,1.09-0.41,2.18-0.51,3.28c-0.1,1.09-0.16,2.12-0.17,3.08c-0.01,0.97-0.02,1.75-0.02,2.36L251.64,310.59z" id="el_-fEz681gfw"/>
			<path d="M296.77,321.67c0-0.08,0.01-0.18,0.02-0.3c0.01-0.13,0.02-0.25,0.02-0.38c0-0.13,0-0.24,0-0.34l0.04-0.23&#xA;&#9;&#9;&#9;&#9;c0-0.08,0.02-0.29,0.06-0.65c0.04-0.36,0.08-0.74,0.13-1.14c0.05-0.41,0.09-0.79,0.11-1.16c0.02-0.37,0.04-0.6,0.04-0.71&#xA;&#9;&#9;&#9;&#9;c-0.05-0.53-0.17-1.23-0.34-2.09c-0.18-0.86-0.45-1.71-0.82-2.55c-0.37-0.84-0.83-1.56-1.39-2.17c-0.56-0.61-1.22-0.91-1.98-0.91&#xA;&#9;&#9;&#9;&#9;c-0.69,0-1.4,0.17-2.15,0.51c-0.75,0.34-1.45,0.79-2.09,1.33s-1.17,1.17-1.58,1.88c-0.43,0.69-0.65,1.41-0.65,2.17&#xA;&#9;&#9;&#9;&#9;c0,0.38,0.06,0.76,0.19,1.12c0.13,0.37,0.26,0.73,0.4,1.08c0.14,0.36,0.27,0.72,0.4,1.1c0.13,0.38,0.19,0.78,0.19,1.18&#xA;&#9;&#9;&#9;&#9;c0,0.3-0.06,0.61-0.17,0.91s-0.39,0.46-0.82,0.46c-0.46,0-0.83-0.27-1.12-0.8c-0.29-0.53-0.56-1.21-0.8-2.04&#xA;&#9;&#9;&#9;&#9;c-0.24-0.83-0.5-1.71-0.76-2.65c-0.27-0.94-0.6-1.82-0.99-2.65c-0.39-0.83-0.88-1.5-1.45-2.04s-1.3-0.8-2.19-0.8&#xA;&#9;&#9;&#9;&#9;c-0.69,0-1.29,0.15-1.83,0.44s-0.97,0.68-1.31,1.16c-0.34,0.48-0.61,1.03-0.8,1.64s-0.29,1.23-0.29,1.87&#xA;&#9;&#9;&#9;&#9;c0,1.02,0.07,2.01,0.21,2.99c0.14,0.98,0.21,1.96,0.21,2.95c0,0.36-0.04,0.68-0.11,0.97s-0.33,0.44-0.76,0.44&#xA;&#9;&#9;&#9;&#9;c-0.28,0-0.51-0.07-0.7-0.21s-0.35-0.32-0.48-0.53c-0.13-0.22-0.23-0.46-0.3-0.72s-0.14-0.5-0.19-0.71&#xA;&#9;&#9;&#9;&#9;c0.05-1.04,0.06-2,0.02-2.89c-0.04-0.89-0.09-1.73-0.15-2.53c-0.06-0.8-0.13-1.61-0.19-2.42c-0.06-0.81-0.1-1.68-0.1-2.59&#xA;&#9;&#9;&#9;&#9;c0-0.05,0-0.14,0-0.27c0-0.13,0.01-0.26,0.02-0.4c0.01-0.14,0.02-0.27,0.02-0.38s0-0.2,0-0.25c0.02-0.05,0.09-0.11,0.19-0.19&#xA;&#9;&#9;&#9;&#9;c0.1-0.08,0.17-0.14,0.19-0.19h0.19c0.43,0,0.75,0.15,0.95,0.46c0.2,0.25,0.3,0.58,0.3,0.99c0.41-0.43,0.77-0.77,1.09-1.01&#xA;&#9;&#9;&#9;&#9;c0.32-0.24,0.62-0.42,0.91-0.55c0.29-0.13,0.6-0.2,0.91-0.23c0.32-0.02,0.7-0.04,1.16-0.04c0.74,0,1.4,0.08,2,0.23&#xA;&#9;&#9;&#9;&#9;c0.6,0.15,1.14,0.38,1.62,0.67c0.48,0.29,0.93,0.68,1.33,1.16c0.41,0.46,0.81,0.99,1.22,1.6c0.02,0,0.06,0.01,0.1,0.02&#xA;&#9;&#9;&#9;&#9;s0.07,0.02,0.1,0.02c0.02,0,0.15-0.12,0.38-0.36s0.53-0.53,0.91-0.88s0.82-0.72,1.33-1.14c0.51-0.42,1.04-0.81,1.6-1.16&#xA;&#9;&#9;&#9;&#9;c0.56-0.36,1.13-0.65,1.71-0.89c0.58-0.24,1.16-0.36,1.71-0.36c0.86,0,1.63,0.18,2.3,0.53c0.67,0.36,1.28,0.83,1.81,1.43&#xA;&#9;&#9;&#9;&#9;s0.99,1.27,1.37,2.02s0.7,1.52,0.95,2.32c0.25,0.8,0.44,1.59,0.55,2.38c0.11,0.79,0.17,1.51,0.17,2.17&#xA;&#9;&#9;&#9;&#9;c0,0.25-0.01,0.69-0.02,1.31c-0.01,0.62-0.08,1.26-0.19,1.9s-0.3,1.22-0.55,1.71c-0.25,0.5-0.61,0.74-1.07,0.74&#xA;&#9;&#9;&#9;&#9;c-0.23,0-0.39-0.04-0.5-0.13c-0.1-0.09-0.18-0.2-0.23-0.32c-0.05-0.13-0.08-0.27-0.08-0.42S296.77,321.85,296.77,321.67z" id="el_nW6ko__dtT"/>
			<path d="M301.19,312.8c0-1.32,0.2-2.58,0.59-3.79c0.39-1.21,0.96-2.27,1.71-3.18c0.75-0.91,1.66-1.64,2.74-2.19&#xA;&#9;&#9;&#9;&#9;c1.08-0.55,2.33-0.82,3.75-0.82c0.84,0.1,1.57,0.33,2.19,0.69c0.62,0.36,1.13,0.79,1.52,1.31c0.39,0.52,0.68,1.12,0.86,1.81&#xA;&#9;&#9;&#9;&#9;c0.15,0.66,0.23,1.37,0.23,2.13c0,0.91-0.27,1.74-0.8,2.48c-0.53,0.74-1.21,1.35-2.02,1.85c-0.81,0.5-1.69,0.88-2.63,1.14&#xA;&#9;&#9;&#9;&#9;c-0.94,0.27-1.82,0.4-2.63,0.4c-0.3,0-0.62,0-0.93,0c-0.32,0-0.6-0.05-0.86-0.15c-0.25-0.1-0.46-0.25-0.61-0.46&#xA;&#9;&#9;&#9;&#9;c-0.15-0.2-0.23-0.51-0.23-0.91c0-0.13,0.02-0.23,0.06-0.32s0.15-0.15,0.32-0.19c0.18-0.04,0.44-0.04,0.8-0.02&#xA;&#9;&#9;&#9;&#9;c0.36,0.05,0.84,0.13,1.45,0.23c0.36,0,0.87-0.12,1.54-0.36c0.67-0.24,1.36-0.55,2.06-0.93c0.7-0.38,1.3-0.82,1.81-1.31&#xA;&#9;&#9;&#9;&#9;c0.51-0.5,0.76-0.98,0.76-1.47c0-0.51-0.08-1.01-0.25-1.5c-0.17-0.5-0.41-0.93-0.74-1.31c-0.33-0.38-0.72-0.69-1.16-0.91&#xA;&#9;&#9;&#9;&#9;c-0.44-0.23-0.95-0.32-1.5-0.27c-0.89,0.08-1.69,0.32-2.42,0.72c-0.72,0.41-1.34,0.93-1.85,1.58c-0.51,0.65-0.9,1.37-1.18,2.15&#xA;&#9;&#9;&#9;&#9;c-0.28,0.79-0.42,1.61-0.42,2.48c0,0.66,0.01,1.32,0.04,1.98c0.02,0.66,0.12,1.31,0.29,1.94c0.17,0.63,0.43,1.24,0.8,1.83&#xA;&#9;&#9;&#9;&#9;c0.37,0.58,0.9,1.1,1.6,1.54c0.7,0.44,1.58,0.81,2.65,1.1s2.39,0.48,3.96,0.55l6.82-0.46c-0.41,0.56-0.92,1.02-1.54,1.37&#xA;&#9;&#9;&#9;&#9;c-0.62,0.36-1.28,0.64-1.98,0.86c-0.7,0.22-1.39,0.38-2.08,0.48c-0.69,0.1-1.33,0.15-1.94,0.15c-1.47,0-2.86-0.24-4.15-0.72&#xA;&#9;&#9;&#9;&#9;c-1.29-0.48-2.44-1.16-3.43-2.04s-1.77-1.94-2.34-3.2S301.19,314.38,301.19,312.8z" id="el_8BqPW1qvUg"/>
			<path d="M321.22,318.4c0.2-0.15,0.39-0.25,0.55-0.29c0.17-0.04,0.35-0.06,0.55-0.06c0.23,0,0.46,0.06,0.69,0.17&#xA;&#9;&#9;&#9;&#9;s0.44,0.25,0.63,0.42s0.39,0.32,0.59,0.48c0.2,0.15,0.42,0.28,0.65,0.38c0.66,0.28,1.19,0.51,1.58,0.69&#xA;&#9;&#9;&#9;&#9;c0.39,0.18,0.76,0.32,1.09,0.42c0.33,0.1,0.71,0.17,1.14,0.19c0.43,0.03,0.99,0.04,1.68,0.04c0.53,0,1.18,0.01,1.94,0.02&#xA;&#9;&#9;&#9;&#9;s1.49-0.05,2.17-0.19s1.27-0.39,1.75-0.76c0.48-0.37,0.72-0.93,0.72-1.7c0.02-0.74-0.17-1.31-0.59-1.73s-0.98-0.74-1.69-0.97&#xA;&#9;&#9;&#9;&#9;c-0.71-0.23-1.51-0.39-2.4-0.48c-0.89-0.09-1.8-0.18-2.74-0.29c-0.94-0.1-1.86-0.25-2.76-0.44c-0.9-0.19-1.71-0.49-2.42-0.9&#xA;&#9;&#9;&#9;&#9;c-0.71-0.41-1.28-0.96-1.71-1.68c-0.43-0.71-0.66-1.62-0.69-2.74c0.15-0.81,0.55-1.49,1.2-2.04s1.42-0.96,2.32-1.26&#xA;&#9;&#9;&#9;&#9;c0.9-0.29,1.86-0.44,2.88-0.46c1.02-0.01,1.95,0.11,2.8,0.38c0.85,0.27,1.56,0.69,2.13,1.28c0.57,0.58,0.87,1.31,0.9,2.17&#xA;&#9;&#9;&#9;&#9;c0.05,0.51,0.01,0.93-0.11,1.26c-0.13,0.33-0.3,0.58-0.51,0.74c-0.22,0.17-0.44,0.24-0.67,0.23s-0.41-0.1-0.53-0.27&#xA;&#9;&#9;&#9;&#9;c-0.13-0.17-0.18-0.41-0.17-0.72c0.01-0.32,0.16-0.72,0.44-1.2c-0.1-0.48-0.39-0.86-0.88-1.14c-0.48-0.28-1.04-0.48-1.68-0.59&#xA;&#9;&#9;&#9;&#9;c-0.63-0.11-1.31-0.14-2.04-0.08s-1.38,0.2-1.98,0.4c-0.6,0.2-1.08,0.47-1.45,0.8c-0.37,0.33-0.53,0.71-0.48,1.14&#xA;&#9;&#9;&#9;&#9;c0,0.76,0.22,1.35,0.67,1.77c0.44,0.42,1.02,0.74,1.73,0.97c0.71,0.23,1.53,0.39,2.46,0.5c0.93,0.1,1.88,0.2,2.86,0.29&#xA;&#9;&#9;&#9;&#9;c0.98,0.09,1.92,0.22,2.84,0.38s1.74,0.44,2.48,0.82c0.74,0.38,1.32,0.9,1.75,1.54c0.43,0.65,0.65,1.49,0.65,2.53&#xA;&#9;&#9;&#9;&#9;c0,0.79-0.2,1.47-0.61,2.04c-0.41,0.57-0.92,1.05-1.54,1.43c-0.62,0.38-1.3,0.66-2.04,0.84c-0.74,0.18-1.43,0.27-2.09,0.27&#xA;&#9;&#9;&#9;&#9;c-0.66,0-1.37-0.01-2.11-0.02c-0.75-0.01-1.51-0.06-2.29-0.13c-0.77-0.08-1.56-0.2-2.34-0.36c-0.79-0.17-1.52-0.42-2.19-0.76&#xA;&#9;&#9;&#9;&#9;c-0.67-0.34-1.28-0.78-1.81-1.31S321.55,319.21,321.22,318.4z" id="el_6-GQMjuuAk"/>
			<path d="M341.29,318.4c0.2-0.15,0.39-0.25,0.55-0.29c0.17-0.04,0.35-0.06,0.55-0.06c0.23,0,0.46,0.06,0.69,0.17&#xA;&#9;&#9;&#9;&#9;s0.44,0.25,0.63,0.42s0.39,0.32,0.59,0.48c0.2,0.15,0.42,0.28,0.65,0.38c0.66,0.28,1.19,0.51,1.58,0.69&#xA;&#9;&#9;&#9;&#9;c0.39,0.18,0.76,0.32,1.09,0.42c0.33,0.1,0.71,0.17,1.14,0.19c0.43,0.03,0.99,0.04,1.68,0.04c0.53,0,1.18,0.01,1.94,0.02&#xA;&#9;&#9;&#9;&#9;s1.49-0.05,2.17-0.19s1.27-0.39,1.75-0.76c0.48-0.37,0.72-0.93,0.72-1.7c0.02-0.74-0.17-1.31-0.59-1.73s-0.98-0.74-1.69-0.97&#xA;&#9;&#9;&#9;&#9;c-0.71-0.23-1.51-0.39-2.4-0.48c-0.89-0.09-1.8-0.18-2.74-0.29c-0.94-0.1-1.86-0.25-2.76-0.44c-0.9-0.19-1.71-0.49-2.42-0.9&#xA;&#9;&#9;&#9;&#9;c-0.71-0.41-1.28-0.96-1.71-1.68c-0.43-0.71-0.66-1.62-0.69-2.74c0.15-0.81,0.55-1.49,1.2-2.04s1.42-0.96,2.32-1.26&#xA;&#9;&#9;&#9;&#9;c0.9-0.29,1.86-0.44,2.88-0.46c1.02-0.01,1.95,0.11,2.8,0.38c0.85,0.27,1.56,0.69,2.13,1.28c0.57,0.58,0.87,1.31,0.9,2.17&#xA;&#9;&#9;&#9;&#9;c0.05,0.51,0.01,0.93-0.11,1.26c-0.13,0.33-0.3,0.58-0.51,0.74c-0.22,0.17-0.44,0.24-0.67,0.23s-0.41-0.1-0.53-0.27&#xA;&#9;&#9;&#9;&#9;c-0.13-0.17-0.18-0.41-0.17-0.72c0.01-0.32,0.16-0.72,0.44-1.2c-0.1-0.48-0.39-0.86-0.88-1.14c-0.48-0.28-1.04-0.48-1.68-0.59&#xA;&#9;&#9;&#9;&#9;c-0.63-0.11-1.31-0.14-2.04-0.08s-1.38,0.2-1.98,0.4c-0.6,0.2-1.08,0.47-1.45,0.8c-0.37,0.33-0.53,0.71-0.48,1.14&#xA;&#9;&#9;&#9;&#9;c0,0.76,0.22,1.35,0.67,1.77c0.44,0.42,1.02,0.74,1.73,0.97c0.71,0.23,1.53,0.39,2.46,0.5c0.93,0.1,1.88,0.2,2.86,0.29&#xA;&#9;&#9;&#9;&#9;c0.98,0.09,1.92,0.22,2.84,0.38s1.74,0.44,2.48,0.82c0.74,0.38,1.32,0.9,1.75,1.54c0.43,0.65,0.65,1.49,0.65,2.53&#xA;&#9;&#9;&#9;&#9;c0,0.79-0.2,1.47-0.61,2.04c-0.41,0.57-0.92,1.05-1.54,1.43c-0.62,0.38-1.3,0.66-2.04,0.84c-0.74,0.18-1.43,0.27-2.09,0.27&#xA;&#9;&#9;&#9;&#9;c-0.66,0-1.37-0.01-2.11-0.02c-0.75-0.01-1.51-0.06-2.29-0.13c-0.77-0.08-1.56-0.2-2.34-0.36c-0.79-0.17-1.52-0.42-2.19-0.76&#xA;&#9;&#9;&#9;&#9;c-0.67-0.34-1.28-0.78-1.81-1.31S341.62,319.21,341.29,318.4z" id="el_DcSrBxcg9p"/>
			<path d="M361.44,316.57c0.02-0.43,0.15-0.93,0.38-1.49c0.23-0.56,0.58-1.1,1.07-1.64c0.48-0.53,1.09-1.01,1.83-1.43&#xA;&#9;&#9;&#9;&#9;c0.74-0.42,1.61-0.72,2.61-0.9c1-0.18,2.15-0.19,3.43-0.04s2.71,0.53,4.29,1.14c0-0.02,0-0.15,0-0.38l-0.04-0.34&#xA;&#9;&#9;&#9;&#9;c0-0.66-0.19-1.33-0.57-2.02s-0.87-1.3-1.47-1.85s-1.24-0.99-1.92-1.33s-1.35-0.51-1.98-0.51c-0.25,0-0.48,0.04-0.67,0.11&#xA;&#9;&#9;&#9;&#9;s-0.38,0.17-0.55,0.29c-0.18,0.11-0.35,0.22-0.51,0.3s-0.36,0.13-0.59,0.13c-0.05,0-0.08-0.01-0.08-0.04&#xA;&#9;&#9;&#9;&#9;c-0.03-0.02-0.05-0.05-0.08-0.08c-0.05-0.05-0.12-0.11-0.21-0.19s-0.13-0.13-0.13-0.15c0-0.46,0.08-0.85,0.25-1.18&#xA;&#9;&#9;&#9;&#9;c0.17-0.33,0.39-0.6,0.69-0.8c0.29-0.2,0.62-0.36,0.99-0.48s0.76-0.17,1.16-0.17c1.01,0.1,1.99,0.41,2.91,0.93&#xA;&#9;&#9;&#9;&#9;s1.78,1.17,2.55,1.96c0.77,0.79,1.45,1.7,2.04,2.72c0.58,1.03,1.07,2.09,1.47,3.2s0.65,2.21,0.78,3.33&#xA;&#9;&#9;&#9;&#9;c0.15,1.17,0.17,2.26,0.04,3.28c-0.03,0-0.1-0.01-0.23-0.02c-0.13-0.01-0.27-0.03-0.42-0.04s-0.28-0.03-0.38-0.06l-0.19-0.04&#xA;&#9;&#9;&#9;&#9;c-0.53-1.19-1.13-2.16-1.79-2.89c-0.66-0.74-1.31-1.31-1.96-1.73s-1.25-0.71-1.81-0.88c-0.56-0.17-1.02-0.29-1.37-0.36&#xA;&#9;&#9;&#9;&#9;c-0.38,0-0.83,0.03-1.35,0.08c-0.52,0.05-1.06,0.14-1.62,0.27c-0.56,0.13-1.12,0.3-1.7,0.51s-1.08,0.48-1.52,0.78&#xA;&#9;&#9;&#9;&#9;s-0.8,0.67-1.07,1.09s-0.4,0.91-0.4,1.47c0,0.61,0.24,1.12,0.72,1.54c0.48,0.42,1.07,0.76,1.75,1.03s1.38,0.45,2.09,0.55&#xA;&#9;&#9;&#9;&#9;c0.71,0.1,1.28,0.15,1.71,0.15c0.71,0,1.41-0.04,2.09-0.11s1.36-0.17,2.04-0.27c0.67-0.1,1.34-0.19,2-0.27&#xA;&#9;&#9;&#9;&#9;c0.66-0.08,1.32-0.11,1.98-0.11c0.05,0,0.14,0,0.27,0c0.13,0,0.26,0.01,0.4,0.02s0.27,0.02,0.38,0.02s0.2,0,0.25,0&#xA;&#9;&#9;&#9;&#9;c0.2,0.08,0.32,0.19,0.34,0.34c0.02,0.15,0.04,0.3,0.04,0.46s-0.16,0.32-0.48,0.5c-0.32,0.18-0.73,0.36-1.24,0.53&#xA;&#9;&#9;&#9;&#9;c-0.51,0.18-1.07,0.36-1.7,0.55s-1.22,0.35-1.79,0.48c-0.57,0.13-1.1,0.24-1.6,0.32s-0.84,0.13-1.05,0.13&#xA;&#9;&#9;&#9;&#9;c-1.07,0-2.2-0.09-3.39-0.27c-1.19-0.18-2.29-0.5-3.28-0.97s-1.81-1.12-2.46-1.96S361.44,317.89,361.44,316.57z" id="el_FrelGBjpYt"/>
			<path d="M375.34,333.6c-0.1-0.36-0.1-0.67,0.02-0.95s0.27-0.51,0.48-0.69s0.42-0.29,0.67-0.34c0.24-0.05,0.44-0.02,0.61,0.1&#xA;&#9;&#9;&#9;&#9;c0.17,0.11,0.27,0.32,0.3,0.63s-0.04,0.72-0.25,1.26c0,0.56,0.23,1.1,0.7,1.64c0.47,0.53,1.08,1.02,1.83,1.45&#xA;&#9;&#9;&#9;&#9;c0.75,0.43,1.57,0.83,2.46,1.18c0.89,0.36,1.75,0.66,2.59,0.91s1.59,0.44,2.25,0.57c0.61,0.13,1.07,0.19,1.37,0.19&#xA;&#9;&#9;&#9;&#9;c0.63,0,1.17-0.17,1.62-0.5s0.83-0.76,1.14-1.29s0.57-1.14,0.76-1.81c0.19-0.67,0.34-1.35,0.44-2.02&#xA;&#9;&#9;&#9;&#9;c0.1-0.67,0.17-1.33,0.19-1.96c0.02-0.63,0.04-1.17,0.04-1.6c0-0.2-0.02-0.58-0.06-1.12c-0.04-0.55-0.09-1.17-0.17-1.89&#xA;&#9;&#9;&#9;&#9;s-0.17-1.45-0.27-2.21c-0.1-0.76-0.22-1.47-0.34-2.13c-0.13-0.66-0.26-1.19-0.4-1.6c-0.14-0.41-0.29-0.61-0.44-0.61&#xA;&#9;&#9;&#9;&#9;c-0.25,0-0.55,0.08-0.9,0.23s-0.7,0.32-1.07,0.5c-0.37,0.18-0.74,0.34-1.12,0.5s-0.75,0.23-1.1,0.23c-0.71,0-1.41-0.15-2.09-0.46&#xA;&#9;&#9;&#9;&#9;s-1.28-0.7-1.77-1.18c-0.5-0.48-0.89-1.05-1.2-1.71c-0.3-0.66-0.46-1.35-0.46-2.06c0-1.12,0.22-2.26,0.67-3.43&#xA;&#9;&#9;&#9;&#9;c0.44-1.17,1.05-2.23,1.83-3.2c0.77-0.96,1.69-1.75,2.74-2.36s2.18-0.91,3.37-0.91c0.91,0.25,1.66,0.83,2.23,1.73&#xA;&#9;&#9;&#9;&#9;s1.02,2.01,1.33,3.33c0.32,1.32,0.55,2.79,0.69,4.4s0.23,3.26,0.29,4.93c0.05,1.68,0.09,3.32,0.13,4.93&#xA;&#9;&#9;&#9;&#9;c0.04,1.61,0.13,3.08,0.29,4.4c0,0.58-0.03,1.28-0.1,2.08s-0.17,1.62-0.32,2.46s-0.36,1.67-0.63,2.5&#xA;&#9;&#9;&#9;&#9;c-0.27,0.82-0.62,1.56-1.05,2.21c-0.43,0.65-0.96,1.17-1.58,1.56c-0.62,0.39-1.34,0.59-2.15,0.59c-0.66,0-1.45-0.08-2.38-0.23&#xA;&#9;&#9;&#9;&#9;s-1.89-0.39-2.89-0.72s-2-0.74-2.99-1.22s-1.88-1.03-2.67-1.66c-0.79-0.62-1.42-1.32-1.9-2.09&#xA;&#9;&#9;&#9;&#9;C375.58,335.35,375.34,334.51,375.34,333.6z M383.34,316.19c0,0.46,0.07,0.9,0.21,1.31s0.34,0.79,0.61,1.12&#xA;&#9;&#9;&#9;&#9;c0.27,0.33,0.6,0.59,0.99,0.78s0.83,0.29,1.31,0.29c1.29,0,2.28-0.25,2.95-0.76c0.67-0.51,1.14-1.14,1.39-1.9&#xA;&#9;&#9;&#9;&#9;c0.25-0.76,0.38-1.57,0.38-2.44c-0.03-0.89-0.06-1.69-0.11-2.4c0-0.36-0.03-0.71-0.08-1.07c-0.05-0.36-0.15-0.69-0.3-0.99&#xA;&#9;&#9;&#9;&#9;s-0.36-0.55-0.63-0.72c-0.27-0.18-0.6-0.27-1.01-0.27c-0.84,0-1.61,0.24-2.32,0.71c-0.71,0.47-1.31,1.05-1.81,1.75&#xA;&#9;&#9;&#9;&#9;s-0.88,1.46-1.16,2.29C383.48,314.71,383.34,315.48,383.34,316.19z" id="el_jVpapHqODf"/>
			<path d="M395.45,312.8c0-1.32,0.2-2.58,0.59-3.79s0.96-2.27,1.71-3.18s1.66-1.64,2.74-2.19s2.33-0.82,3.75-0.82&#xA;&#9;&#9;&#9;&#9;c0.84,0.1,1.57,0.33,2.19,0.69c0.62,0.36,1.13,0.79,1.52,1.31s0.68,1.12,0.86,1.81c0.15,0.66,0.23,1.37,0.23,2.13&#xA;&#9;&#9;&#9;&#9;c0,0.91-0.27,1.74-0.8,2.48c-0.53,0.74-1.21,1.35-2.02,1.85c-0.81,0.5-1.69,0.88-2.63,1.14c-0.94,0.27-1.82,0.4-2.63,0.4&#xA;&#9;&#9;&#9;&#9;c-0.3,0-0.62,0-0.93,0s-0.6-0.05-0.86-0.15c-0.25-0.1-0.46-0.25-0.61-0.46c-0.15-0.2-0.23-0.51-0.23-0.91&#xA;&#9;&#9;&#9;&#9;c0-0.13,0.02-0.23,0.06-0.32s0.15-0.15,0.32-0.19c0.18-0.04,0.44-0.04,0.8-0.02c0.36,0.05,0.84,0.13,1.45,0.23&#xA;&#9;&#9;&#9;&#9;c0.36,0,0.87-0.12,1.54-0.36s1.36-0.55,2.06-0.93s1.3-0.82,1.81-1.31c0.51-0.5,0.76-0.98,0.76-1.47c0-0.51-0.08-1.01-0.25-1.5&#xA;&#9;&#9;&#9;&#9;s-0.41-0.93-0.74-1.31c-0.33-0.38-0.72-0.69-1.16-0.91s-0.95-0.32-1.5-0.27c-0.89,0.08-1.7,0.32-2.42,0.72&#xA;&#9;&#9;&#9;&#9;c-0.72,0.41-1.34,0.93-1.85,1.58c-0.51,0.65-0.9,1.37-1.18,2.15c-0.28,0.79-0.42,1.61-0.42,2.48c0,0.66,0.01,1.32,0.04,1.98&#xA;&#9;&#9;&#9;&#9;c0.02,0.66,0.12,1.31,0.29,1.94c0.17,0.63,0.43,1.24,0.8,1.83c0.37,0.58,0.9,1.1,1.6,1.54s1.58,0.81,2.65,1.1&#xA;&#9;&#9;&#9;&#9;s2.39,0.48,3.96,0.55l6.82-0.46c-0.41,0.56-0.92,1.02-1.54,1.37c-0.62,0.36-1.28,0.64-1.98,0.86s-1.39,0.38-2.08,0.48&#xA;&#9;&#9;&#9;&#9;c-0.69,0.1-1.33,0.15-1.94,0.15c-1.47,0-2.86-0.24-4.15-0.72c-1.29-0.48-2.44-1.16-3.43-2.04s-1.77-1.94-2.34-3.2&#xA;&#9;&#9;&#9;&#9;S395.45,314.38,395.45,312.8z" id="el_jhcC1EYVfdG"/>
			<path d="M434.64,309.91c-0.2,0-0.56,0-1.07,0c-0.51,0-1.04-0.04-1.58-0.13s-1.04-0.23-1.49-0.44c-0.44-0.2-0.67-0.5-0.67-0.88&#xA;&#9;&#9;&#9;&#9;c0-0.1,0.02-0.25,0.06-0.44s0.16-0.29,0.36-0.29l3.92-0.34c0.1-0.94,0.18-1.71,0.23-2.3c0.05-0.6,0.06-1.16,0.04-1.68&#xA;&#9;&#9;&#9;&#9;c-0.03-0.52-0.06-1.07-0.1-1.64s-0.07-1.31-0.09-2.23c0-0.18,0.04-0.32,0.11-0.42c0.08-0.1,0.17-0.18,0.29-0.23&#xA;&#9;&#9;&#9;&#9;c0.11-0.05,0.24-0.09,0.38-0.11c0.14-0.02,0.25-0.04,0.32-0.04c0.15,0,0.31,0.05,0.48,0.15c0.17,0.1,0.31,0.23,0.44,0.38&#xA;&#9;&#9;&#9;&#9;c0.13,0.15,0.23,0.31,0.3,0.48s0.11,0.32,0.11,0.48l0.3,7.12l3.28,0.15c0.43-0.05,0.83,0.03,1.2,0.25s0.57,0.62,0.59,1.2&#xA;&#9;&#9;&#9;&#9;c-0.3,0.33-0.67,0.53-1.1,0.59c-0.43,0.06-0.88,0.09-1.35,0.08s-0.93-0.01-1.39,0s-0.86,0.13-1.22,0.36&#xA;&#9;&#9;&#9;&#9;c0,0.15,0.01,0.57,0.04,1.26c0.02,0.69,0.05,1.5,0.08,2.44c0.02,0.94,0.06,1.94,0.09,3.01s0.07,2.05,0.1,2.95&#xA;&#9;&#9;&#9;&#9;c0.02,0.9,0.04,1.67,0.06,2.3c0.01,0.63,0.02,0.99,0.02,1.07c-0.58,0.36-1.05,0.32-1.41-0.09c-0.36-0.42-0.64-1.04-0.86-1.87&#xA;&#9;&#9;&#9;&#9;s-0.37-1.79-0.46-2.89s-0.14-2.2-0.15-3.28s-0.01-2.08,0.02-2.99C434.55,310.97,434.59,310.31,434.64,309.91z" id="el_jpb_f7T5hUD"/>
			<path d="M442.98,315.24c0-1.4,0.3-2.61,0.91-3.66c0.61-1.04,1.41-1.92,2.4-2.63c0.99-0.71,2.1-1.24,3.33-1.58&#xA;&#9;&#9;&#9;&#9;s2.47-0.51,3.71-0.51c0.66,0,1.28,0.12,1.85,0.36c0.57,0.24,1.12,0.57,1.64,0.99c0.52,0.42,0.98,0.9,1.39,1.45&#xA;&#9;&#9;&#9;&#9;s0.75,1.11,1.05,1.69c0.29,0.58,0.51,1.17,0.67,1.77s0.23,1.17,0.23,1.73c0,1.29-0.25,2.45-0.76,3.47&#xA;&#9;&#9;&#9;&#9;c-0.51,1.02-1.19,1.87-2.06,2.57s-1.84,1.23-2.93,1.6s-2.21,0.55-3.35,0.55c-1.17,0-2.24-0.18-3.22-0.55s-1.83-0.88-2.55-1.54&#xA;&#9;&#9;&#9;&#9;c-0.72-0.66-1.29-1.48-1.69-2.46C443.18,317.52,442.98,316.43,442.98,315.24z M444.85,314.93c0,0.79,0.15,1.54,0.44,2.27&#xA;&#9;&#9;&#9;&#9;s0.7,1.35,1.22,1.88s1.14,0.96,1.85,1.28c0.71,0.32,1.47,0.48,2.29,0.48c0.43,0.05,0.96-0.02,1.58-0.21s1.24-0.47,1.87-0.84&#xA;&#9;&#9;&#9;&#9;s1.22-0.81,1.79-1.33c0.57-0.52,1.05-1.09,1.43-1.71s0.62-1.27,0.7-1.94s-0.03-1.35-0.34-2.02c-0.32-0.67-0.9-1.32-1.73-1.94&#xA;&#9;&#9;&#9;&#9;s-1.99-1.2-3.47-1.73c-0.84,0-1.71,0.12-2.61,0.36s-1.72,0.6-2.46,1.08c-0.74,0.48-1.35,1.09-1.83,1.83&#xA;&#9;&#9;&#9;&#9;C445.09,313.12,444.85,313.97,444.85,314.93z" id="el_I0mMwqJluGM"/>
			<path d="M477.64,334.89c0-0.18,0-0.35,0-0.51c0-0.17,0.03-0.3,0.08-0.42s0.13-0.21,0.23-0.29c0.15-0.05,0.33-0.08,0.53-0.08&#xA;&#9;&#9;&#9;&#9;c0.38,0.43,0.87,0.98,1.47,1.66c0.6,0.67,1.28,1.33,2.04,1.96s1.56,1.19,2.4,1.68s1.69,0.72,2.55,0.72&#xA;&#9;&#9;&#9;&#9;c0.71-0.03,1.32-0.21,1.83-0.55s0.94-0.79,1.29-1.35s0.65-1.19,0.88-1.9s0.41-1.43,0.55-2.17s0.24-1.45,0.3-2.13&#xA;&#9;&#9;&#9;&#9;s0.13-1.28,0.21-1.79c0.05-0.25,0.11-0.68,0.17-1.28c0.06-0.6,0.13-1.26,0.19-1.98c0.06-0.72,0.11-1.48,0.15-2.27&#xA;&#9;&#9;&#9;&#9;c0.04-0.79,0.03-1.5-0.02-2.15s-0.15-1.18-0.3-1.6s-0.38-0.63-0.69-0.63c-0.43,0-0.89,0.13-1.37,0.38&#xA;&#9;&#9;&#9;&#9;c-0.48,0.25-0.98,0.54-1.5,0.86c-0.52,0.32-1.05,0.6-1.58,0.86c-0.53,0.25-1.05,0.38-1.56,0.38c-0.96,0-1.85-0.2-2.65-0.59&#xA;&#9;&#9;&#9;&#9;c-0.8-0.39-1.53-0.91-2.19-1.54c-0.66-0.63-1.24-1.38-1.75-2.23s-0.93-1.73-1.28-2.65c-0.34-0.91-0.6-1.83-0.76-2.74&#xA;&#9;&#9;&#9;&#9;s-0.25-1.78-0.25-2.59c0-0.18-0.02-0.47-0.06-0.88c-0.04-0.41-0.03-0.82,0.02-1.26c0.05-0.43,0.17-0.81,0.34-1.14&#xA;&#9;&#9;&#9;&#9;c0.18-0.33,0.46-0.5,0.84-0.5c0.1,0,0.18,0.2,0.25,0.61c0.06,0.41,0.14,0.93,0.23,1.58s0.2,1.39,0.34,2.23&#xA;&#9;&#9;&#9;&#9;c0.14,0.84,0.32,1.69,0.55,2.55c0.23,0.86,0.51,1.71,0.84,2.55s0.74,1.58,1.22,2.23s1.06,1.17,1.73,1.58&#xA;&#9;&#9;&#9;&#9;c0.67,0.41,1.44,0.61,2.3,0.61c0.56,0,1.14-0.12,1.75-0.36s1.19-0.55,1.73-0.93c0.54-0.38,1.05-0.81,1.5-1.29&#xA;&#9;&#9;&#9;&#9;c0.46-0.51,0.81-1,1.07-1.49c0-0.1-0.01-0.34-0.04-0.72s-0.05-0.82-0.08-1.31s-0.05-1.03-0.08-1.62&#xA;&#9;&#9;&#9;&#9;c-0.03-0.58-0.05-1.14-0.08-1.66s-0.04-0.97-0.06-1.35s-0.02-0.62-0.02-0.72c0.05-1.55,0.17-2.49,0.34-2.84s0.39-0.23,0.65,0.32&#xA;&#9;&#9;&#9;&#9;c0.25,0.56,0.52,1.5,0.8,2.82c0.28,1.32,0.54,2.86,0.78,4.63c0.24,1.76,0.43,3.69,0.57,5.77c0.14,2.08,0.2,4.17,0.17,6.27&#xA;&#9;&#9;&#9;&#9;s-0.16,4.12-0.4,6.07s-0.63,3.69-1.16,5.2c-0.53,1.51-1.23,2.74-2.09,3.67s-1.93,1.43-3.2,1.49c-0.51,0-1.11-0.09-1.81-0.29&#xA;&#9;&#9;&#9;&#9;c-0.7-0.19-1.4-0.45-2.11-0.78s-1.42-0.72-2.11-1.18s-1.32-0.95-1.87-1.49c-0.55-0.53-0.99-1.09-1.33-1.68&#xA;&#9;&#9;&#9;&#9;C477.81,336.06,477.64,335.47,477.64,334.89z" id="el_caCH7K29u1s"/>
			<path d="M495.61,315.24c0-1.4,0.3-2.61,0.91-3.66c0.61-1.04,1.41-1.92,2.4-2.63c0.99-0.71,2.1-1.24,3.33-1.58&#xA;&#9;&#9;&#9;&#9;s2.47-0.51,3.71-0.51c0.66,0,1.28,0.12,1.85,0.36c0.57,0.24,1.12,0.57,1.64,0.99c0.52,0.42,0.98,0.9,1.39,1.45&#xA;&#9;&#9;&#9;&#9;s0.75,1.11,1.05,1.69c0.29,0.58,0.51,1.17,0.67,1.77s0.23,1.17,0.23,1.73c0,1.29-0.25,2.45-0.76,3.47&#xA;&#9;&#9;&#9;&#9;c-0.51,1.02-1.19,1.87-2.06,2.57s-1.84,1.23-2.93,1.6s-2.21,0.55-3.35,0.55c-1.17,0-2.24-0.18-3.22-0.55&#xA;&#9;&#9;&#9;&#9;c-0.98-0.37-1.83-0.88-2.55-1.54c-0.72-0.66-1.29-1.48-1.69-2.46S495.61,316.43,495.61,315.24z M497.48,314.93&#xA;&#9;&#9;&#9;&#9;c0,0.79,0.15,1.54,0.44,2.27s0.7,1.35,1.22,1.88s1.14,0.96,1.85,1.28s1.47,0.48,2.29,0.48c0.43,0.05,0.96-0.02,1.58-0.21&#xA;&#9;&#9;&#9;&#9;s1.24-0.47,1.87-0.84c0.62-0.37,1.22-0.81,1.79-1.33c0.57-0.52,1.05-1.09,1.43-1.71s0.62-1.27,0.7-1.94s-0.03-1.35-0.34-2.02&#xA;&#9;&#9;&#9;&#9;c-0.32-0.67-0.9-1.32-1.73-1.94s-1.99-1.2-3.47-1.73c-0.84,0-1.71,0.12-2.61,0.36s-1.72,0.6-2.46,1.08&#xA;&#9;&#9;&#9;&#9;c-0.74,0.48-1.35,1.09-1.83,1.83C497.72,313.12,497.48,313.97,497.48,314.93z" id="el_RU9KlRwVFYp"/>
			<path d="M528.52,317.49c-0.58,0.33-1.09,0.73-1.5,1.2c-0.42,0.47-0.84,0.91-1.28,1.33s-0.91,0.78-1.43,1.08s-1.19,0.46-2,0.46&#xA;&#9;&#9;&#9;&#9;c-0.91,0-1.74-0.2-2.48-0.59s-1.39-0.93-1.96-1.6c-0.57-0.67-1.07-1.43-1.49-2.29c-0.42-0.85-0.76-1.73-1.03-2.63&#xA;&#9;&#9;&#9;&#9;c-0.27-0.9-0.47-1.79-0.61-2.67c-0.14-0.88-0.21-1.67-0.21-2.38c-0.2-1.37-0.17-2.44,0.11-3.22s0.62-1.27,1.01-1.49&#xA;&#9;&#9;&#9;&#9;c0.39-0.22,0.73-0.17,1.01,0.15s0.32,0.87,0.11,1.66c-0.05,0.1-0.09,0.26-0.11,0.48s-0.05,0.44-0.08,0.67s-0.05,0.44-0.08,0.65&#xA;&#9;&#9;&#9;&#9;c-0.03,0.2-0.04,0.34-0.04,0.42c0,0.53,0.05,1.16,0.15,1.89s0.26,1.48,0.48,2.27c0.21,0.79,0.49,1.57,0.82,2.34&#xA;&#9;&#9;&#9;&#9;s0.72,1.47,1.18,2.08s0.98,1.1,1.58,1.49c0.6,0.38,1.25,0.57,1.96,0.57c0.46,0,0.98-0.22,1.56-0.67s1.14-0.98,1.66-1.6&#xA;&#9;&#9;&#9;&#9;c0.52-0.62,0.96-1.26,1.33-1.92c0.37-0.66,0.55-1.22,0.55-1.68c0-0.25,0.01-0.67,0.02-1.26c0.01-0.58,0.02-1.21,0.02-1.87&#xA;&#9;&#9;&#9;&#9;c0-0.66-0.01-1.28-0.02-1.87c-0.01-0.58-0.02-0.99-0.02-1.22c0.15-0.25,0.32-0.45,0.5-0.59s0.39-0.21,0.65-0.21&#xA;&#9;&#9;&#9;&#9;c0.3,0,0.56,0.2,0.76,0.61c0.2,0.41,0.37,0.93,0.5,1.56c0.13,0.63,0.22,1.32,0.27,2.06c0.05,0.74,0.09,1.45,0.11,2.13&#xA;&#9;&#9;&#9;&#9;s0.05,1.29,0.08,1.81s0.06,0.87,0.11,1.05c0.13,0.51,0.31,1.08,0.55,1.71c0.24,0.63,0.48,1.25,0.7,1.85s0.43,1.14,0.61,1.64&#xA;&#9;&#9;&#9;&#9;s0.27,0.87,0.27,1.12c0,0.38-0.11,0.61-0.32,0.69s-0.49,0.11-0.82,0.11c-0.41,0-0.71-0.1-0.89-0.3c-0.19-0.2-0.33-0.46-0.42-0.78&#xA;&#9;&#9;&#9;&#9;s-0.16-0.67-0.21-1.05s-0.13-0.77-0.25-1.18c-0.11-0.41-0.28-0.79-0.49-1.14C529.24,318.01,528.93,317.71,528.52,317.49z" id="el_fp78sSAnqWh"/>
			<path d="M535.19,319.35c0-0.2,0.08-0.51,0.25-0.91c0.17-0.41,0.36-0.82,0.59-1.24s0.46-0.78,0.7-1.09s0.45-0.46,0.63-0.46&#xA;&#9;&#9;&#9;&#9;c0.51,0,0.95,0.13,1.33,0.4s0.69,0.6,0.93,1.01c0.24,0.41,0.43,0.85,0.55,1.33c0.13,0.48,0.19,0.93,0.19,1.33&#xA;&#9;&#9;&#9;&#9;c0,0.3-0.09,0.65-0.27,1.03s-0.4,0.74-0.67,1.07c-0.27,0.33-0.57,0.61-0.9,0.84s-0.66,0.34-0.99,0.34c-0.38,0-0.71-0.13-0.99-0.4&#xA;&#9;&#9;&#9;&#9;s-0.53-0.6-0.74-0.99s-0.37-0.8-0.48-1.22S535.19,319.63,535.19,319.35z" id="el_S-VNtGfVjyL"/>
			<path d="M543.15,319.35c0-0.2,0.08-0.51,0.25-0.91c0.17-0.41,0.36-0.82,0.59-1.24s0.46-0.78,0.7-1.09s0.45-0.46,0.63-0.46&#xA;&#9;&#9;&#9;&#9;c0.51,0,0.95,0.13,1.33,0.4s0.69,0.6,0.93,1.01c0.24,0.41,0.43,0.85,0.55,1.33c0.13,0.48,0.19,0.93,0.19,1.33&#xA;&#9;&#9;&#9;&#9;c0,0.3-0.09,0.65-0.27,1.03s-0.4,0.74-0.67,1.07c-0.27,0.33-0.57,0.61-0.9,0.84s-0.66,0.34-0.99,0.34c-0.38,0-0.71-0.13-0.99-0.4&#xA;&#9;&#9;&#9;&#9;s-0.53-0.6-0.74-0.99s-0.37-0.8-0.48-1.22S543.15,319.63,543.15,319.35z" id="el_8w5pkv-InfL"/>
			<path d="M551.11,319.35c0-0.2,0.08-0.51,0.25-0.91c0.17-0.41,0.36-0.82,0.59-1.24s0.46-0.78,0.7-1.09s0.45-0.46,0.63-0.46&#xA;&#9;&#9;&#9;&#9;c0.51,0,0.95,0.13,1.33,0.4s0.69,0.6,0.93,1.01c0.24,0.41,0.43,0.85,0.55,1.33c0.13,0.48,0.19,0.93,0.19,1.33&#xA;&#9;&#9;&#9;&#9;c0,0.3-0.09,0.65-0.27,1.03s-0.4,0.74-0.67,1.07c-0.27,0.33-0.57,0.61-0.9,0.84s-0.66,0.34-0.99,0.34c-0.38,0-0.71-0.13-0.99-0.4&#xA;&#9;&#9;&#9;&#9;s-0.53-0.6-0.74-0.99s-0.37-0.8-0.48-1.22S551.11,319.63,551.11,319.35z" id="el_Ivq0XklPLeM"/>
		</g>
	</g>
</g></g>
<g id="el_jGVRCAtTzMc">
	<path d="M639.49,268.86l0.34,297.95H152.51V268.86c0,0,0,0,232.39,183.18c6.51,5.13,15.7,5.13,22.21,0L639.49,268.86z" id="el_Hy4w51-Iwsu"/>
	<g id="el_deXDBgqoZLB">
		<g id="el_toypB6c38nn_an_3UJiWVRL0" data-animator-group="true" data-animator-type="2"><path d="M396,268.86h243.49l-121.75,96.26l-111.62,88.25c-5.94,4.69-14.32,4.69-20.26,0l-111.62-88.25l-121.75-96.26&#xA;&#9;&#9;&#9;H396z" id="el_toypB6c38nn"/></g>
	</g>
</g>
</svg>